<svg width="487" height="453" fill="none" xmlns="http://www.w3.org/2000/svg"><g clip-rule="evenodd" stroke="#96A9C6"><path d="M238.03 23.013C185.353 6.512 131.189-21.012 75.736 29.26 20.283 79.532-14.58 123.57 7.933 180.55c22.514 56.98 114.411 21.489 141.113 72.416 26.701 50.926-31.968 97.145-6.674 142.469 25.293 45.324 44.742 74.373 126.027 45.554 81.285-28.818 73.79-102.145 135.603-145.084 61.814-42.939 128.692-107.221 36.912-221.924-91.78-114.702-150.207-34.465-202.884-50.967Z"/><path d="M245.045 49.78c-42.902-13.399-87.015-35.746-132.178 5.072-45.163 40.818-73.556 76.574-55.22 122.838 18.335 46.265 93.18 17.449 114.926 58.798 21.747 41.349-26.035 78.877-5.435 115.677 20.599 36.801 36.439 60.387 102.64 36.988s60.098-82.937 110.44-117.801c50.343-34.864 104.811-87.058 30.062-180.19C335.532-1.97 287.947 63.178 245.045 49.78Z"/><path d="M257.391 67.393c-34.756-10.916-70.493-29.123-107.081 4.132-36.587 33.255-59.59 62.386-44.735 100.078 14.854 37.693 75.487 14.216 93.105 47.903 17.617 33.688-21.092 64.263-4.404 94.245 16.689 29.982 29.521 49.197 83.152 30.134 53.631-19.064 48.686-67.57 89.47-95.974 40.785-28.405 84.91-70.927 24.355-146.803-60.556-75.876-99.106-22.8-133.862-33.715Z"/><path d="M270.09 89.454c-28.022-8.762-56.835-23.376-86.334 3.317-29.498 26.693-48.044 50.076-36.068 80.33 11.976 30.255 60.862 11.411 75.066 38.451s-17.005 51.582-3.55 75.647c13.455 24.066 23.801 39.49 67.041 24.188 43.24-15.301 39.254-54.236 72.136-77.035 32.882-22.8 68.458-56.932 19.635-117.836-48.823-60.904-79.904-18.3-107.926-27.062Z"/><path d="M273.12 103.262c-22.917-7.155-46.481-19.09-70.606 2.709-24.125 21.8-39.292 40.896-29.498 65.603 9.795 24.708 49.775 9.319 61.391 31.402 11.617 22.083-13.907 42.125-2.903 61.779 11.004 19.653 19.465 32.25 54.828 19.753 35.363-12.496 32.103-44.293 58.995-62.913 26.892-18.619 55.987-46.494 16.058-96.232s-65.348-14.945-88.265-22.101Z"/><path d="M279.571 113.419c-18.572-5.804-37.669-15.486-57.221 2.198-19.551 17.684-31.843 33.175-23.905 53.219 7.937 20.044 40.338 7.559 49.753 25.473 9.414 17.915-11.271 34.173-2.354 50.117 8.918 15.944 15.775 26.162 44.435 16.024 28.659-10.137 26.017-35.931 47.81-51.036 21.794-15.105 45.374-37.717 13.015-78.066-32.36-40.349-52.96-12.124-71.533-17.929Z"/></g></svg>